PathFileType	4	(X/Y/Z)	A12_1_OpenSim.trc																																																																																																																						
DataRate	CameraRate	NumFrames	NumMarkers	Units	OrigDataRate	OrigDataStartFrame	OrigNumFrames																																																																																																																		
100	100	7	40	mm	100	376	3000																																																																																																																		
Frame#	Time	R.ASIS			R.PSIS			S2			L.PSIS			L.ASIS			R.TH1			R.TH2			R.TH3			R.MKnee			R.Knee			R.SH1			R.SH2			R.SH3			R.SH4			R.Ankle			R.MAnkle			R.Heel			R.MT5			R.MT1			L.TH1			L.TH2			L.TH3			L.TH4			L.MKnee			L.Knee			L.SH1			L.SH2			L.SH3			L.Ankle			L.MAnkle			L.Heel			L.MT5			L.MT1			R.Acr			L.Acr			C7			T10			Clav			Sternum			R.Back		
		X1	Y1	Z1	X2	Y2	Z2	X3	Y3	Z3	X4	Y4	Z4	X5	Y5	Z5	X6	Y6	Z6	X7	Y7	Z7	X8	Y8	Z8	X9	Y9	Z9	X10	Y10	Z10	X11	Y11	Z11	X12	Y12	Z12	X13	Y13	Z13	X14	Y14	Z14	X15	Y15	Z15	X16	Y16	Z16	X17	Y17	Z17	X18	Y18	Z18	X19	Y19	Z19	X20	Y20	Z20	X21	Y21	Z21	X22	Y22	Z22	X23	Y23	Z23	X24	Y24	Z24	X25	Y25	Z25	X26	Y26	Z26	X27	Y27	Z27	X28	Y28	Z28	X29	Y29	Z29	X30	Y30	Z30	X31	Y31	Z31	X32	Y32	Z32	X33	Y33	Z33	X34	Y34	Z34	X35	Y35	Z35	X36	Y36	Z36	X37	Y37	Z37	X38	Y38	Z38	X39	Y39	Z39	X40	Y40	Z40
376	3.75	913.5756	1054.6248	-445.4585	726.9302	1051.6694	-541.2078	720.9081	1049.4479	-586.745	728.1338	1059.1333	-636.4476	906.8619	1067.6704	-734.1649	981.2414	743.4661	-426.8486	907.1413	709.8302	-416.6662	952.9521	609.703	-423.7477	1015.9365	504.8081	-547.8069	1004.1368	511.7591	-427.6305	904.2363	385.1196	-426.3397	826.0624	305.3797	-443.7106	846.3297	443.9591	-425.0334	767.97	361.4374	-432.0758	664.477	248.6877	-440.258	709.0006	224.9762	-528.0987	603.5833	268.2308	-505.5503	697.8071	135.8342	-401.1136	739.2017	95.1317	-482.5567	959.6987	771.1069	-749.7703	975.8453	664.8532	-734.3563	877.7817	753.4059	-758.6777	897.2151	647.7976	-735.972	974.3173	515.007	-602.6293	972.8532	516.6418	-713.2897	973.6281	379.807	-725.1957	892.0725	387.5154	-733.2595	883.9667	278.3105	-723.192	914.3353	81.7478	-714.0615	944.8361	92.5953	-614.1378	848.8249	42.2533	-657.904	1020.5588	32.7314	-730.2236	1061.4763	44.8951	-631.1096	843.0634	1446.0409	-421.6815	813.2177	1441.469	-751.0472	769.8981	1488.4386	-584.4238	748.0164	1160.0519	-582.2268	909.6884	1396.1392	-592.0934	944.3044	1255.1913	-583.3368	697.3227	1386.479	-493.8963
377	3.76	912.7415	1057.0948	-446.165	726.0256	1053.7932	-541.3248	719.9482	1051.5363	-586.8443	727.1238	1061.1809	-636.5601	905.7019	1069.3928	-734.7787	983.8776	748.3795	-426.5249	910.1593	713.525	-416.9344	957.8429	614.1551	-423.8614	1023.4512	510.4688	-547.976	1011.1451	516.8574	-427.8608	914.8104	387.3631	-426.9513	839.3049	305.1814	-444.0719	855.1912	444.3761	-426.6642	779.4344	359.5584	-433.5699	679.77	243.0847	-441.5893	725.2965	220.9661	-529.4518	618.3067	260.0994	-507.0696	717.4138	131.6841	-402.1604	760.4081	92.5298	-483.5308	955.456	771.3126	-750.0953	970.1245	664.9364	-734.7965	873.3626	754.8015	-759.1633	891.2197	648.8743	-736.5409	966.2195	514.7649	-603.1426	964.5107	516.4197	-713.8884	964.1321	379.6132	-725.6517	882.7198	387.9624	-733.9319	873.7419	278.8283	-723.7828	902.4308	81.8345	-714.0888	932.9616	92.6965	-614.0958	836.905	42.4946	-657.8674	1008.5891	32.7277	-730.3177	1049.439	44.9043	-631.1504	841.3565	1447.7841	-421.917	812.774	1443.8408	-751.1883	768.9894	1490.3469	-584.6951	747.0046	1162.094	-582.9573	908.6848	1398.1206	-592.0129	943.2719	1257.2244	-583.3643	695.9929	1388.3384	-494.7173
378	3.77	911.9838	1059.4064	-446.816	725.1223	1055.7227	-541.2772	718.967	1053.426	-586.7804	726.0544	1063.0291	-636.5054	904.4158	1070.9485	-735.378	986.2476	753.0176	-426.0056	912.8713	717.0833	-417.0008	962.2237	618.3974	-423.8235	1030.2085	515.8922	-548.0022	1017.5164	521.7052	-427.984	925.2792	389.0494	-427.3911	852.7976	304.2676	-444.378	863.7728	443.9383	-427.9035	791.0344	356.6106	-434.6752	695.7731	236.0747	-442.5848	742.238	215.9633	-530.5541	633.7175	250.4841	-508.1544	738.0459	126.3252	-403.1149	782.6926	89.1334	-484.5393	951.0868	771.4559	-750.4062	964.3205	665.0026	-735.2542	868.8312	756.138	-759.6523	885.1389	649.9121	-737.1258	958.0332	514.5431	-603.6968	956.017	516.1908	-714.5456	954.5164	379.4223	-726.1616	873.2545	388.3992	-734.5795	863.4358	279.343	-724.3323	890.5453	81.9078	-714.0953	921.1058	92.8029	-614.0618	824.9632	42.7735	-657.8616	996.6567	32.7016	-730.4023	1037.4529	44.8923	-631.1967	839.7331	1449.4104	-422.0645	812.4166	1446.0839	-751.2695	768.1094	1492.1349	-584.9097	746.0022	1164.0027	-583.5674	907.7123	1399.968	-591.884	942.2293	1259.1016	-583.3686	694.7252	1390.0894	-495.4546
379	3.78	911.3019	1061.507	-447.4197	724.2246	1057.4347	-541.09	717.9711	1055.0933	-586.5795	724.9382	1064.6528	-636.3105	903.0217	1072.2939	-735.972	988.355	757.3406	-425.3286	915.312	720.4323	-416.8692	966.1312	622.361	-423.6484	1036.1925	520.9753	-547.9247	1023.2455	526.2386	-428.0317	935.6205	390.2026	-427.6714	866.5081	302.7231	-444.6307	872.0936	442.6792	-428.7482	802.7836	352.6844	-435.3938	712.5023	227.8578	-443.2421	759.8068	210.099	-531.3751	649.8439	239.5561	-508.8137	759.6873	120.0258	-403.9225	805.9808	85.1553	-485.5045	946.6187	771.5118	-750.6805	958.4629	665.0137	-735.6877	864.2091	757.3765	-760.1127	879.0072	650.8804	-737.6711	949.7865	514.3329	-604.2418	947.4322	515.9492	-715.2162	944.822	379.2262	-726.6711	863.7218	388.8254	-735.1637	853.0848	279.8524	-724.8108	878.6801	81.9813	-714.0773	909.2758	92.9161	-614.021	812.9996	43.0836	-657.8828	984.7473	32.6601	-730.4645	1025.5203	44.8597	-631.2416	838.2194	1450.8729	-422.1197	812.1387	1448.1471	-751.2935	767.2671	1493.775	-585.068	745.0183	1165.7424	-584.0658	906.7802	1401.6432	-591.7169	941.1955	1260.7858	-583.3556	693.5283	1391.698	-496.1054
380	3.79	910.6902	1063.3615	-447.9814	723.3374	1058.9211	-540.7883	716.9686	1056.5297	-586.2675	723.7905	1066.0431	-636.0037	901.5461	1073.4016	-736.5572	990.2076	761.3199	-424.5357	917.5107	723.5131	-416.5544	969.5939	625.9959	-423.358	1041.4136	525.6277	-547.7871	1028.3355	530.4025	-428.0382	945.8248	390.8441	-427.8103	880.4176	300.6256	-444.8265	880.1867	440.6357	-429.2117	814.7018	347.8831	-435.7571	729.9742	218.6346	-443.5634	777.9961	203.4931	-531.8818	666.7262	227.4936	-509.0696	782.3046	113.0509	-404.5325	830.1799	80.7959	-486.3429	942.077	771.4603	-750.8957	952.5636	664.9278	-736.0576	859.521	758.4922	-760.5186	872.8563	651.7567	-738.1363	941.499	514.1199	-604.7408	938.8154	515.6909	-715.8583	935.0975	379.0198	-727.1334	854.1732	389.2387	-735.6691	842.7306	280.3536	-725.2089	866.8357	82.075	-714.0466	897.475	93.0366	-613.9655	801.0249	43.4093	-657.9204	972.8439	32.6124	-730.5127	1013.6315	44.8085	-631.2736	836.8287	1452.1334	-422.0925	811.9255	1449.9954	-751.2611	766.4701	1495.2462	-585.1692	744.0607	1167.2876	-584.462	905.895	1403.1172	-591.5226	940.1889	1262.2523	-583.3309	692.407	1393.1357	-496.6681
381	3.8	910.1409	1064.9519	-448.5001	722.4669	1060.1844	-540.3967	715.9694	1057.7388	-585.8678	722.6293	1067.2041	-635.6109	900.0226	1074.2616	-737.118	991.8166	764.9232	-423.6868	919.4846	726.2801	-416.0839	972.6239	629.2663	-422.9853	1045.8857	529.7731	-547.6305	1032.7974	534.1506	-428.0333	955.8916	390.9975	-427.8285	894.5184	298.0512	-444.9573	888.0987	437.8498	-429.3145	826.8151	342.3195	-435.8084	748.199	208.6055	-443.5565	796.8071	196.271	-532.0519	684.4123	214.4827	-508.9567	805.8402	105.6529	-404.9039	855.1892	76.2438	-486.9731	937.4847	771.2855	-751.0342	946.6247	664.7098	-736.3303	854.798	759.4743	-760.8556	866.7162	652.5276	-738.4995	933.1921	513.885	-605.1755	930.2191	515.4117	-716.4388	925.3958	378.799	-727.5204	844.6547	389.6369	-736.0944	832.4069	280.8448	-725.5304	855.0126	82.2082	-714.0204	885.697	93.1594	-613.8944	789.0591	43.7284	-657.9595	960.9308	32.5658	-730.5679	1001.7668	44.7476	-631.2883	835.5627	1453.1654	-421.9981	811.757	1451.608	-751.1722	765.7244	1496.5331	-585.2129	743.135	1168.6223	-584.7635	905.0611	1404.3707	-591.3121	939.2264	1263.4874	-583.2984	691.3635	1394.38	-497.1432
382	3.81	909.6439	1066.2755	-448.967	721.6193	1061.2335	-539.9372	714.9846	1058.7322	-585.4004	721.4748	1068.1506	-635.1537	898.4908	1074.8812	-737.6305	993.1822	768.1086	-422.8518	921.232	728.6972	-415.4963	975.2147	632.1431	-422.5742	1049.6157	533.3538	-547.4913	1036.6488	537.4448	-428.0366	965.8192	390.6977	-427.7414	908.8022	295.0822	-445.0044	895.8805	434.3701	-429.0822	839.1508	336.1101	-435.5857	767.1759	197.9716	-443.234	816.2395	188.5716	-531.8805	702.9517	200.7167	-508.5141	830.2169	98.0674	-405.0048	880.9073	71.6773	-487.3239	932.868	770.9776	-751.0876	940.6616	664.3511	-736.4864	850.0789	760.3229	-761.1173	860.6136	653.189	-738.755	924.8949	513.6061	-605.5415	921.6851	515.1071	-716.9376	915.7622	378.5598	-727.824	835.1992	390.019	-736.4432	822.1322	281.3269	-725.7854	843.2087	82.3874	-714.0079	873.9264	93.2738	-613.8121	777.1243	44.0197	-657.9855	948.9936	32.5246	-730.6483	989.904	44.694	-631.2929	834.4153	1453.9541	-421.8505	811.6091	1452.9736	-751.0291	765.0352	1497.6255	-585.2005	742.2458	1169.7384	-584.9727	904.2821	1405.3915	-591.0958	938.3204	1264.4844	-583.2608	690.3973	1395.4159	-497.5327
